<svg width="570" height="250" viewBox="0 0 570 250" fill="none" xmlns="http://www.w3.org/2000/svg">
<path d="M30.5 146.8H37.95C37.65 148.65 37.55 150.45 37.55 153.6V171.35C37.55 181.7 31.4 187.5 20.5 187.5C14.95 187.5 10.35 185.8 7.6 182.8C5.05 180.05 3.85 176.3 3.85 171.3V153.65C3.85 150.55 3.75 148.6 3.45 146.8H10.9C10.6 148.5 10.5 150.4 10.5 153.65V171.3C10.5 178.05 14 181.6 20.75 181.6C27.45 181.6 30.9 178.05 30.9 171.25V153.65C30.9 150.45 30.8 148.65 30.5 146.8ZM78.9551 186.6H71.0551C70.2051 184.9 69.3051 183.45 67.8551 181.25L54.9551 161.8C54.0051 160.3 52.7551 158.15 51.5551 155.8C51.6051 156.5 51.6051 156.5 51.7551 158.35C51.8051 159.3 51.9051 161.55 51.9051 162.7V179.1C51.9051 182.45 52.0551 184.8 52.3051 186.6H45.0051C45.2551 184.95 45.4051 182.45 45.4051 179.05V153.25C45.4051 150.65 45.3051 148.85 45.0051 146.8H52.8051C53.2551 148.05 54.1551 149.55 55.8551 152.1L68.5051 171.15C69.7051 172.95 71.3051 175.55 72.4051 177.55C72.2051 175.6 72.0551 172.6 72.0551 170.5V153.7C72.0551 150.75 71.9551 148.7 71.6551 146.8H78.9551C78.6551 148.8 78.5551 150.65 78.5551 153.7V180.15C78.5551 182.95 78.6551 184.85 78.9551 186.6ZM86.4695 180.15V153.15C86.4695 150.35 86.3695 148.85 86.0695 146.65C88.0695 146.75 89.2695 146.8 92.4195 146.8H101.47C107.72 146.8 111.77 148.1 114.97 151.2C118.62 154.65 120.52 159.85 120.52 166.35C120.52 173.15 118.52 178.55 114.62 182.25C111.42 185.25 107.42 186.6 101.52 186.6H92.4195C89.3695 186.6 88.1195 186.65 86.0695 186.75C86.3695 184.7 86.4695 183.15 86.4695 180.15ZM93.1195 180.7H101.07C105.17 180.7 107.82 179.75 109.92 177.5C112.32 174.95 113.57 171.1 113.57 166.4C113.57 161.65 112.42 158.1 110.12 155.7C108.07 153.55 105.47 152.7 101.12 152.7H93.1195V180.7ZM154.753 180.3V186.95C152.953 186.7 151.353 186.6 148.303 186.6H132.703C129.703 186.6 128.353 186.65 126.353 186.75C126.653 184.75 126.753 183.1 126.753 180.15V153.1C126.753 150.5 126.653 149 126.353 146.65C128.353 146.75 129.653 146.8 132.703 146.8H147.803C150.303 146.8 151.953 146.7 154.253 146.45V153.05C152.353 152.8 150.753 152.7 147.803 152.7H133.403V163H145.553C148.153 163 149.853 162.9 152.053 162.65V169.2C150.003 168.9 148.653 168.85 145.553 168.85H133.353V180.65H148.353C151.153 180.65 152.603 180.55 154.753 180.3ZM194.231 186.6H185.981C185.881 185.4 185.031 182.85 183.381 178.6C180.681 171.7 178.931 169.85 175.081 169.85H167.631V180.05C167.631 183.05 167.731 184.65 168.031 186.6H160.581C160.881 184.5 160.981 183.15 160.981 180.1V153.15C160.981 150.5 160.881 149 160.581 146.65C162.681 146.75 164.231 146.8 166.981 146.8H178.981C186.581 146.8 190.931 150.6 190.931 157.2C190.931 160.4 190.081 162.9 188.381 164.65C186.981 166.1 185.681 166.75 182.831 167.55C185.981 168.55 186.931 169.95 191.881 181.65C192.281 182.55 193.531 185.25 194.231 186.6ZM167.631 164.15H177.681C179.531 164.15 181.281 163.5 182.431 162.35C183.481 161.3 184.031 159.85 184.031 157.95C184.031 154.35 181.981 152.5 177.881 152.5H167.631V164.15ZM233.454 152.8V180.1C233.454 182.8 233.554 184.55 233.854 186.6H226.304C226.604 184.5 226.704 182.8 226.704 180.1V152.8H219.954C217.004 152.8 214.854 152.9 213.104 153.15V146.45C214.904 146.7 217.054 146.8 219.904 146.8H239.704C243.304 146.8 245.154 146.7 247.054 146.45V153.15C245.204 152.9 243.304 152.8 239.704 152.8H233.454ZM278.103 146.8H285.553C285.253 148.85 285.153 150.35 285.153 153.2V180.15C285.153 183.05 285.253 184.5 285.553 186.6H278.103C278.403 184.65 278.503 183.1 278.503 180.15V168.85H258.403V180.15C258.403 183.05 258.503 184.55 258.803 186.6H251.353C251.653 184.7 251.753 183.1 251.753 180.15V153.25C251.753 150.3 251.653 148.75 251.353 146.8H258.803C258.503 148.9 258.403 150.55 258.403 153.2V162.85H278.503V153.25C278.503 150.4 278.403 148.6 278.103 146.8ZM321.061 180.3V186.95C319.261 186.7 317.661 186.6 314.611 186.6H299.011C296.011 186.6 294.661 186.65 292.661 186.75C292.961 184.75 293.061 183.1 293.061 180.15V153.1C293.061 150.5 292.961 149 292.661 146.65C294.661 146.75 295.961 146.8 299.011 146.8H314.111C316.611 146.8 318.261 146.7 320.561 146.45V153.05C318.661 152.8 317.061 152.7 314.111 152.7H299.711V163H311.861C314.461 163 316.161 162.9 318.361 162.65V169.2C316.311 168.9 314.961 168.85 311.861 168.85H299.661V180.65H314.661C317.461 180.65 318.911 180.55 321.061 180.3ZM379.84 186.6H371.64C371.34 184.95 370.79 182.8 370.24 181.35L368.24 175.9H352.24L350.24 181.35C349.34 183.75 349.14 184.5 348.74 186.6H340.54C341.29 185.25 342.29 183 343.19 180.7L354.19 151.85C355.14 149.35 355.54 148.1 355.79 146.8H364.49C364.74 148 365.04 148.8 366.19 151.85L377.29 180.7C378.54 183.9 379.14 185.3 379.84 186.6ZM366.44 170.15L361.09 155.35C360.89 154.8 360.74 154.2 360.19 152.55C359.39 154.9 359.39 154.9 359.24 155.35L354.04 170.15H366.44ZM417.571 186.6H409.321C409.221 185.4 408.371 182.85 406.721 178.6C404.021 171.7 402.271 169.85 398.421 169.85H390.971V180.05C390.971 183.05 391.071 184.65 391.371 186.6H383.921C384.221 184.5 384.321 183.15 384.321 180.1V153.15C384.321 150.5 384.221 149 383.921 146.65C386.021 146.75 387.571 146.8 390.321 146.8H402.321C409.921 146.8 414.271 150.6 414.271 157.2C414.271 160.4 413.421 162.9 411.721 164.65C410.321 166.1 409.021 166.75 406.171 167.55C409.321 168.55 410.271 169.95 415.221 181.65C415.621 182.55 416.871 185.25 417.571 186.6ZM390.971 164.15H401.021C402.871 164.15 404.621 163.5 405.771 162.35C406.821 161.3 407.371 159.85 407.371 157.95C407.371 154.35 405.321 152.5 401.221 152.5H390.971V164.15ZM449.443 173.2L456.593 174.45C455.643 178.05 454.743 180 453.243 181.95C450.393 185.45 445.593 187.4 439.593 187.4C434.143 187.4 429.793 185.75 426.743 182.6C423.243 178.95 421.293 173.3 421.293 166.9C421.293 160.3 423.393 154.5 427.143 150.75C430.143 147.7 434.643 146 439.643 146C443.543 146 446.493 146.75 449.243 148.4C451.493 149.8 453.293 151.65 454.543 153.85C455.143 154.9 455.493 155.8 456.093 157.7L449.143 159.3C448.443 157.1 447.993 156.15 446.993 155C445.293 152.95 442.793 151.9 439.693 151.9C432.593 151.9 428.293 157.45 428.293 166.65C428.293 175.8 432.693 181.5 439.693 181.5C443.193 181.5 446.193 180.15 447.793 177.8C448.643 176.55 449.043 175.5 449.443 173.2ZM488.991 146.8H496.441C496.141 148.85 496.041 150.35 496.041 153.2V180.15C496.041 183.05 496.141 184.5 496.441 186.6H488.991C489.291 184.65 489.391 183.1 489.391 180.15V168.85H469.291V180.15C469.291 183.05 469.391 184.55 469.691 186.6H462.241C462.541 184.7 462.641 183.1 462.641 180.15V153.25C462.641 150.3 462.541 148.75 462.241 146.8H469.691C469.391 148.9 469.291 150.55 469.291 153.2V162.85H489.391V153.25C489.391 150.4 489.291 148.6 488.991 146.8ZM531.95 180.3V186.95C530.15 186.7 528.55 186.6 525.5 186.6H509.9C506.9 186.6 505.55 186.65 503.55 186.75C503.85 184.75 503.95 183.1 503.95 180.15V153.1C503.95 150.5 503.85 149 503.55 146.65C505.55 146.75 506.85 146.8 509.9 146.8H525C527.5 146.8 529.15 146.7 531.45 146.45V153.05C529.55 152.8 527.95 152.7 525 152.7H510.6V163H522.75C525.35 163 527.05 162.9 529.25 162.65V169.2C527.2 168.9 525.85 168.85 522.75 168.85H510.55V180.65H525.55C528.35 180.65 529.8 180.55 531.95 180.3ZM536.479 174.95L543.679 174.2C543.879 176.45 544.179 177.45 545.079 178.6C546.529 180.5 549.129 181.55 552.379 181.55C557.379 181.55 560.379 179.3 560.379 175.55C560.379 173.5 559.429 171.8 557.879 170.95C556.379 170.15 556.079 170.1 549.179 168.5C545.429 167.65 543.429 166.85 541.629 165.45C539.079 163.45 537.779 160.7 537.779 157.35C537.779 150.4 543.379 145.9 551.979 145.9C557.679 145.9 561.979 147.65 564.429 150.95C565.679 152.6 566.279 154.1 566.879 156.75L559.729 157.6C559.429 155.9 559.079 155.05 558.229 154.05C556.929 152.5 554.729 151.65 551.979 151.65C547.629 151.65 544.679 153.85 544.679 157.1C544.679 159.2 545.779 160.65 548.079 161.65C549.179 162.1 549.579 162.2 555.129 163.45C559.079 164.3 561.479 165.25 563.279 166.5C566.129 168.6 567.429 171.35 567.429 175.1C567.429 178.65 566.329 181.55 564.279 183.6C561.629 186.15 557.679 187.4 552.329 187.4C548.229 187.4 544.229 186.4 541.829 184.8C539.829 183.45 538.379 181.55 537.429 179.1C536.979 177.95 536.779 177 536.479 174.95Z" fill="#0F498F"/>
<path d="M190.62 229.044L195.804 228.504C195.948 230.124 196.164 230.844 196.812 231.672C197.856 233.04 199.728 233.796 202.068 233.796C205.668 233.796 207.828 232.176 207.828 229.476C207.828 228 207.144 226.776 206.028 226.164C204.948 225.588 204.732 225.552 199.764 224.4C197.064 223.788 195.624 223.212 194.328 222.204C192.492 220.764 191.556 218.784 191.556 216.372C191.556 211.368 195.588 208.128 201.78 208.128C205.884 208.128 208.98 209.388 210.744 211.764C211.644 212.952 212.076 214.032 212.508 215.94L207.36 216.552C207.144 215.328 206.892 214.716 206.28 213.996C205.344 212.88 203.76 212.268 201.78 212.268C198.648 212.268 196.524 213.852 196.524 216.192C196.524 217.704 197.316 218.748 198.972 219.468C199.764 219.792 200.052 219.864 204.048 220.764C206.892 221.376 208.62 222.06 209.916 222.96C211.968 224.472 212.904 226.452 212.904 229.152C212.904 231.708 212.112 233.796 210.636 235.272C208.728 237.108 205.884 238.008 202.032 238.008C199.08 238.008 196.2 237.288 194.472 236.136C193.032 235.164 191.988 233.796 191.304 232.032C190.98 231.204 190.836 230.52 190.62 229.044ZM229.926 213.096V232.752C229.926 234.696 229.998 235.956 230.214 237.432H224.778C224.994 235.92 225.066 234.696 225.066 232.752V213.096H220.206C218.082 213.096 216.534 213.168 215.274 213.348V208.524C216.57 208.704 218.118 208.776 220.17 208.776H234.426C237.018 208.776 238.35 208.704 239.718 208.524V213.348C238.386 213.168 237.018 213.096 234.426 213.096H229.926ZM255.27 208.2C259.23 208.2 262.29 209.352 264.738 211.8C267.366 214.428 268.77 218.352 268.77 223.032C268.77 232.14 263.478 238.044 255.306 238.044C247.134 238.044 241.878 232.176 241.878 223.032C241.878 218.388 243.318 214.392 245.982 211.8C248.466 209.352 251.454 208.2 255.27 208.2ZM255.378 233.76C260.526 233.76 263.73 229.656 263.73 223.032C263.73 219.396 262.722 216.48 260.886 214.644C259.41 213.204 257.502 212.448 255.342 212.448C250.158 212.448 246.882 216.552 246.882 223.068C246.882 226.668 247.926 229.692 249.798 231.564C251.274 233.004 253.182 233.76 255.378 233.76ZM297.206 237.432H291.266C291.194 236.568 290.582 234.732 289.394 231.672C287.45 226.704 286.19 225.372 283.418 225.372H278.054V232.716C278.054 234.876 278.126 236.028 278.342 237.432H272.978C273.194 235.92 273.266 234.948 273.266 232.752V213.348C273.266 211.44 273.194 210.36 272.978 208.668C274.49 208.74 275.606 208.776 277.586 208.776H286.226C291.698 208.776 294.83 211.512 294.83 216.264C294.83 218.568 294.218 220.368 292.994 221.628C291.986 222.672 291.05 223.14 288.998 223.716C291.266 224.436 291.95 225.444 295.514 233.868C295.802 234.516 296.702 236.46 297.206 237.432ZM278.054 221.268H285.29C286.622 221.268 287.882 220.8 288.71 219.972C289.466 219.216 289.862 218.172 289.862 216.804C289.862 214.212 288.386 212.88 285.434 212.88H278.054V221.268ZM326.958 237.432H321.054C320.838 236.244 320.442 234.696 320.046 233.652L318.606 229.728H307.086L305.646 233.652C304.998 235.38 304.854 235.92 304.566 237.432H298.662C299.202 236.46 299.922 234.84 300.57 233.184L308.49 212.412C309.174 210.612 309.462 209.712 309.642 208.776H315.906C316.086 209.64 316.302 210.216 317.13 212.412L325.122 233.184C326.022 235.488 326.454 236.496 326.958 237.432ZM317.31 225.588L313.458 214.932C313.314 214.536 313.206 214.104 312.81 212.916C312.234 214.608 312.234 214.608 312.126 214.932L308.382 225.588H317.31ZM353.368 226.272V230.052C353.368 232.176 353.404 233.148 353.62 234.732C351.064 236.136 349.768 236.712 347.86 237.216C346.24 237.648 344.332 237.9 342.568 237.9C338.068 237.9 334.612 236.496 332.344 233.76C330.148 231.168 328.96 227.28 328.96 222.816C328.96 217.092 330.976 212.7 334.72 210.18C336.952 208.704 339.4 208.056 342.712 208.056C345.988 208.056 348.976 209.172 350.992 211.152C352.252 212.376 352.9 213.42 353.656 215.436L348.724 216.768C347.536 213.492 345.808 212.34 342.1 212.34C339.976 212.34 337.996 213.132 336.628 214.536C334.828 216.408 333.964 219.072 333.964 222.744C333.964 226.452 334.792 229.26 336.412 231.168C337.888 232.896 339.832 233.652 342.676 233.652C345.124 233.652 346.96 233.184 348.796 232.032V226.164H346.852C345.016 226.164 344.26 226.2 343.18 226.38V221.736C344.476 221.916 345.268 221.952 347.5 221.952H349.372C351.028 221.952 352.072 221.916 353.62 221.808C353.44 223.14 353.368 224.256 353.368 226.272ZM378.785 232.896V237.684C377.489 237.504 376.337 237.432 374.141 237.432H362.909C360.749 237.432 359.777 237.468 358.337 237.54C358.553 236.1 358.625 234.912 358.625 232.788V213.312C358.625 211.44 358.553 210.36 358.337 208.668C359.777 208.74 360.713 208.776 362.909 208.776H373.781C375.581 208.776 376.769 208.704 378.425 208.524V213.276C377.057 213.096 375.905 213.024 373.781 213.024H363.413V220.44H372.161C374.033 220.44 375.257 220.368 376.841 220.188V224.904C375.365 224.688 374.393 224.652 372.161 224.652H363.377V233.148H374.177C376.193 233.148 377.237 233.076 378.785 232.896Z" fill="#A5A5A5"/>
<path d="M177.49 107.246C177.762 104.885 180.022 103.28 182.341 103.802L219.066 112.054C221.029 112.496 222.359 114.327 222.171 116.331L221.34 125.2C221.147 127.255 219.422 128.826 217.357 128.826H179.488C177.097 128.826 175.24 126.743 175.514 124.368L177.49 107.246Z" fill="black"/>
<path d="M393.51 107.746C393.238 105.385 390.978 103.78 388.659 104.302L351.934 112.554C349.971 112.996 348.641 114.827 348.829 116.831L349.66 125.7C349.853 127.755 351.578 129.326 353.643 129.326H391.512C393.903 129.326 395.76 127.243 395.486 124.868L393.51 107.746Z" fill="black"/>
<path d="M202.86 54.4871C204.03 53.7957 205.428 54.1257 206.421 55.0539L233.533 80.4172C234.88 81.6777 235.191 83.6964 234.284 85.3036L226.485 99.1301C225.528 100.826 223.489 101.587 221.656 100.932L185.483 88.014C183.891 87.4455 182.867 85.9339 183.23 84.2827C183.917 81.1519 185.781 75.4538 190.832 67.5663C196.081 59.3713 200.464 55.9035 202.86 54.4871Z" fill="black"/>
<path d="M248.311 21.4965C249.668 21.4301 250.751 22.3742 251.196 23.6579L263.358 58.7358C263.963 60.4791 263.296 62.4098 261.745 63.4089L248.399 72.005C246.762 73.0594 244.604 72.7819 243.287 71.3477L217.307 43.0563C216.164 41.8112 215.963 39.9968 217.054 38.7051C219.121 36.2558 223.427 32.0836 231.572 27.4605C240.036 22.6571 245.53 21.6326 248.311 21.4965Z" fill="black"/>
<path d="M307.248 7.57811C308.662 8.2605 309.314 9.81718 309.027 11.3609L300.592 56.6718C300.249 58.5143 298.672 59.8716 296.799 59.9373L274.894 60.7059C272.939 60.7745 271.22 59.4184 270.833 57.5005L261.597 11.785C261.244 10.0338 262.095 8.2724 263.753 7.60588C268.016 5.89132 276.829 3.00746 287.319 3.29347C297.418 3.56885 304.046 6.0328 307.248 7.57811Z" fill="black"/>
<path d="M354.249 40.6861C354.976 41.8338 354.689 43.242 353.792 44.2624L329.28 72.1466C328.062 73.5325 326.054 73.9052 324.419 73.0488L310.358 65.6808C308.633 64.7771 307.81 62.7628 308.408 60.9097L320.2 24.3544C320.719 22.7456 322.198 21.6759 323.86 21.9873C327.01 22.5776 332.763 24.264 340.803 29.0689C349.157 34.061 352.759 38.3348 354.249 40.6861Z" fill="black"/>
<path d="M387.559 86.2007C387.621 87.558 386.673 88.6382 385.388 89.0788L350.268 101.119C348.522 101.717 346.594 101.044 345.6 99.489L337.051 86.1132C336.002 84.4726 336.287 82.3153 337.726 81.0033L366.108 55.1224C367.357 53.9834 369.172 53.789 370.46 54.884C372.902 56.9603 377.059 61.2799 381.654 69.4419C386.428 77.922 387.433 83.42 387.559 86.2007Z" fill="black"/>
</svg>
